<svg width="157" height="60" viewBox="0 0 157 60" fill="none" xmlns="http://www.w3.org/2000/svg">
<path d="M68.5729 38.586H65.833V26.6165H68.4087V28.5736C68.9558 27.7403 69.5745 27.1342 70.2647 26.7554C70.9634 26.3682 71.7841 26.1746 72.7268 26.1746C73.6612 26.1746 74.4355 26.3724 75.05 26.7681C75.6645 27.1553 76.1316 27.7487 76.4515 28.5483C77.0828 27.7234 77.752 27.1216 78.459 26.7428C79.1745 26.364 79.9868 26.1746 80.8959 26.1746C81.6871 26.1746 82.3773 26.3219 82.9665 26.6165C83.5558 26.9027 84.0145 27.3236 84.3428 27.8791C84.4943 28.1401 84.6037 28.4515 84.6711 28.8135C84.7468 29.1754 84.7847 29.6931 84.7847 30.3665V38.586H82.0448V32.4371C82.0448 30.8294 81.8723 29.7731 81.5272 29.268C81.1905 28.7546 80.5844 28.4978 79.709 28.4978C78.6316 28.4978 77.8614 28.8429 77.3985 29.5332C76.9439 30.215 76.7167 31.4144 76.7167 33.1316V38.586H73.9515V32.4371C73.9515 30.9557 73.7706 29.9288 73.4086 29.3564C73.0551 28.784 72.4406 28.4978 71.5652 28.4978C71.0265 28.4978 70.5341 28.6199 70.088 28.864C69.6419 29.1081 69.2883 29.4448 69.0274 29.8741C68.859 30.1518 68.7412 30.4927 68.6739 30.8968C68.6065 31.3008 68.5729 32.0457 68.5729 33.1316V38.586Z" fill="currentColor"/>
<path d="M99.7213 38.586H96.9814V37.033C96.4932 37.7232 95.9209 38.2367 95.2643 38.5734C94.6162 38.9101 93.8712 39.0784 93.0295 39.0784C91.3376 39.0784 90.0035 38.5019 89.027 37.3487C88.059 36.1871 87.575 34.6004 87.575 32.5887C87.575 30.6779 88.0717 29.1375 89.0649 27.9675C90.0582 26.7891 91.3544 26.1999 92.9537 26.1999C93.9301 26.1999 94.7635 26.4061 95.4537 26.8186C96.1523 27.2226 96.6616 27.8076 96.9814 28.5736V26.6165H99.7213V38.586ZM97.0572 32.5634C97.0572 31.3261 96.7668 30.3623 96.186 29.672C95.6136 28.9818 94.8098 28.6367 93.7744 28.6367C92.7391 28.6367 91.9226 28.9944 91.325 29.7099C90.7358 30.417 90.4412 31.4018 90.4412 32.6644C90.4412 33.9354 90.7273 34.9161 91.2997 35.6063C91.8721 36.2965 92.6802 36.6416 93.7239 36.6416C94.7088 36.6416 95.5084 36.267 96.1229 35.5179C96.7458 34.7688 97.0572 33.7839 97.0572 32.5634Z" fill="currentColor"/>
<path d="M112.107 32.5634C112.107 31.3261 111.817 30.3623 111.236 29.672C110.664 28.9818 109.86 28.6367 108.825 28.6367C107.789 28.6367 106.973 28.9944 106.375 29.7099C105.786 30.417 105.491 31.4018 105.491 32.6644C105.491 33.9354 105.778 34.9161 106.35 35.6063C106.922 36.2965 107.73 36.6416 108.774 36.6416C109.759 36.6416 110.559 36.267 111.173 35.5179C111.796 34.7688 112.107 33.7839 112.107 32.5634ZM114.772 37.8411C114.772 40.1811 114.304 41.8267 113.37 42.7779C112.436 43.7374 110.862 44.2172 108.648 44.2172C106.998 44.2172 105.681 43.8679 104.696 43.1693C103.711 42.4791 103.21 41.5574 103.193 40.4042L106.135 40.3915C106.177 40.905 106.417 41.2964 106.855 41.5658C107.293 41.8351 107.907 41.9698 108.698 41.9698C109.868 41.9698 110.71 41.7131 111.224 41.1996C111.737 40.6862 111.998 39.8276 112.006 38.6239L112.032 37.033C111.543 37.7232 110.971 38.2367 110.315 38.5734C109.666 38.9101 108.921 39.0784 108.08 39.0784C106.388 39.0784 105.054 38.5019 104.077 37.3487C103.109 36.1871 102.625 34.6004 102.625 32.5887C102.625 30.6779 103.122 29.1375 104.115 27.9675C105.108 26.7891 106.405 26.1999 108.004 26.1999C108.98 26.1999 109.814 26.4061 110.504 26.8186C111.203 27.2226 111.712 27.8076 112.032 28.5736V26.6165H114.772V37.8411Z" fill="currentColor"/>
<path d="M130.011 39.3057L127.246 33.0811C127.036 32.6013 126.863 32.1762 126.728 31.8058C126.594 31.4271 126.472 31.0567 126.362 30.6948C126.177 31.2419 126.013 31.7133 125.87 32.1089C125.727 32.4961 125.613 32.7865 125.529 32.9801L122.688 39.3057L116.489 26.6165H119.405L122.095 32.3866C122.204 32.6307 122.309 32.9674 122.41 33.3967C122.52 33.8176 122.612 34.2848 122.688 34.7982C122.696 34.4952 122.747 34.1795 122.84 33.8513C122.932 33.523 123.088 33.119 123.307 32.6392L126.236 26.1746H126.463L129.443 32.6392C129.628 33.0432 129.763 33.4178 129.847 33.7629C129.94 34.108 129.994 34.4531 130.011 34.7982C130.087 34.3437 130.184 33.9144 130.302 33.5104C130.419 33.1063 130.554 32.7402 130.706 32.4119L133.344 26.6165H136.236L130.011 39.3057Z" fill="currentColor"/>
<path d="M149.215 38.586H146.476V37.033C145.987 37.7232 145.415 38.2367 144.758 38.5734C144.11 38.9101 143.365 39.0784 142.524 39.0784C140.832 39.0784 139.498 38.5019 138.521 37.3487C137.553 36.1871 137.069 34.6004 137.069 32.5887C137.069 30.6779 137.566 29.1375 138.559 27.9675C139.552 26.7891 140.849 26.1999 142.448 26.1999C143.424 26.1999 144.258 26.4061 144.948 26.8186C145.646 27.2226 146.156 27.8076 146.476 28.5736V26.6165H149.215V38.586ZM146.551 32.5634C146.551 31.3261 146.261 30.3623 145.68 29.672C145.108 28.9818 144.304 28.6367 143.268 28.6367C142.233 28.6367 141.417 28.9944 140.819 29.7099C140.23 30.417 139.935 31.4018 139.935 32.6644C139.935 33.9354 140.221 34.9161 140.794 35.6063C141.366 36.2965 142.174 36.6416 143.218 36.6416C144.203 36.6416 145.002 36.267 145.617 35.5179C146.24 34.7688 146.551 33.7839 146.551 32.5634Z" fill="currentColor"/>
<path d="M152.763 21.4399C152.763 20.9769 152.932 20.5771 153.268 20.2404C153.613 19.9037 154.022 19.7354 154.493 19.7354C154.981 19.7354 155.385 19.8995 155.705 20.2278C156.033 20.5476 156.198 20.9517 156.198 21.4399C156.198 21.9281 156.033 22.3405 155.705 22.6772C155.377 23.0055 154.973 23.1696 154.493 23.1696C154.022 23.1696 153.613 23.0013 153.268 22.6646C152.932 22.3195 152.763 21.9112 152.763 21.4399ZM153.129 38.586V26.6165H155.869V38.586H153.129Z" fill="currentColor"/>
<path d="M18.5768 11.7705C18.5768 11.7705 10.9416 11.8259 10.2399 11.9083C8.89093 12.0627 5.89481 12.7235 4.66146 15.1959C2.98161 18.5645 6.1442 23.3368 6.1442 23.3368L10.1204 29.6939" stroke="#BFECFF" stroke-width="1.5" stroke-linecap="round"/>
<path d="M14.1693 48.1258C15.1597 47.5068 15.4607 46.2021 14.8417 45.2117C14.2227 44.2213 12.9181 43.9203 11.9277 44.5393L10.7319 45.2866C9.74153 45.9056 9.44045 47.2103 10.0595 48.2007C10.6785 49.1911 11.9831 49.4921 12.9735 48.8731L14.1693 48.1258Z" fill="currentColor"/>
<path d="M23.0355 31.5013C24.0259 30.8823 24.327 29.5776 23.708 28.5872C23.089 27.5968 21.7843 27.2957 20.7939 27.9147L9.23594 35.1385C8.24554 35.7575 7.94446 37.0621 8.56346 38.0525C9.18246 39.0429 10.4871 39.344 11.4775 38.725L23.0355 31.5013Z" fill="currentColor"/>
<path d="M27.1846 39.9925C28.175 39.3735 28.4761 38.0688 27.8571 37.0784C27.2381 36.088 25.9335 35.787 24.9431 36.406L18.3387 40.5337C17.3483 41.1527 17.0472 42.4573 17.6662 43.4477C18.2852 44.4381 19.5899 44.7392 20.5803 44.1202L27.1846 39.9925Z" fill="currentColor"/>
<path d="M51.5316 29.2126C52.3019 28.7312 52.5361 27.7164 52.0546 26.9461C51.5732 26.1757 50.5584 25.9416 49.7881 26.423C49.0177 26.9045 48.7835 27.9193 49.265 28.6896C49.7465 29.4599 50.7612 29.6941 51.5316 29.2126Z" fill="currentColor"/>
<path fill-rule="evenodd" clip-rule="evenodd" d="M41.9665 35.3739C40.7937 37.7473 39.4498 40.4728 38.2445 42.9173C36.5556 46.3427 35.1387 49.2163 34.8458 49.7962C33.7268 52.0202 32.6377 52.7705 31.3235 52.6408C30.3056 52.549 28.9625 51.2691 28.8734 48.7205C28.7842 46.172 28.4781 39.1917 23.115 42.5427C23.0229 42.3954 22.9779 42.1675 22.9293 41.921C22.872 41.6307 22.8096 41.3146 22.6593 41.0741C21.4083 39.0725 16.2613 30.7534 16.6347 30.52C17.0082 30.2866 18.7333 28.6863 17.6506 26.8472C16.7186 25.2642 15.1936 24.359 13.544 23.38C13.2772 23.2216 13.0072 23.0614 12.7359 22.896C10.232 21.2896 9.65153 20.0467 10.2372 18.3828C10.9802 16.815 13.4292 16.8195 14.432 16.8522C15.4141 16.8849 22.9112 16.9237 30.4216 16.9357L25.5287 30.3564C25.2728 31.1441 25.3 31.9963 25.6054 32.7661C26.1533 33.4388 26.9381 33.8762 27.7986 33.9882L41.9637 35.3712C41.9646 35.3721 41.9656 35.373 41.9665 35.3739ZM36.0915 16.939C35.8745 16.9822 35.6641 17.0595 35.4684 17.1693C35.0453 17.4067 34.7165 17.7819 34.5366 18.2324C32.8143 22.162 32.333 23.4135 31.648 25.1942C31.4937 25.5956 31.329 26.0238 31.1374 26.5156C31.1104 26.5945 31.0769 26.688 31.0394 26.7928C30.7449 27.6156 30.2012 29.1343 30.5781 29.7372C30.9018 30.2553 31.6286 30.3293 33.0108 30.47C33.2101 30.4903 33.4231 30.512 33.6505 30.5366C37.4292 30.9412 42.7685 31.4034 42.7685 31.4034C43.2432 31.3579 43.694 31.1739 44.065 30.8742C44.1519 30.804 44.2335 30.7282 44.3094 30.6474C44.4487 30.3683 44.5711 30.1239 44.6741 29.9192L48.2555 22.7904C48.2675 22.7666 48.2799 22.7418 48.2929 22.7161C49.0234 21.266 51.2617 16.8233 44.5762 16.9035C42.6626 16.9265 39.5769 16.937 36.0915 16.939Z" fill="currentColor"/>
<path d="M54.3587 22.0873C54.3587 22.0873 56.821 18.2299 54.8562 15.0192C52.8915 11.8085 47.2925 11.7602 47.2925 11.7602L26.4745 11.8719" stroke="#FE60B7" stroke-width="1.5" stroke-linecap="round"/>
<path d="M21.7822 48.6759C21.7822 48.6759 25.8898 55.2887 26.0928 55.5737C26.6558 56.3685 29.0255 59.3337 32.1998 59.0302C35.9468 58.6713 38.3202 53.4614 38.3202 53.4614L48.1784 33.7244" stroke="#A072FD" stroke-width="1.5" stroke-linecap="round"/>
</svg>
