<svg width="37" height="31" viewBox="0 0 37 31" fill="none" xmlns="http://www.w3.org/2000/svg">
<path d="M3.08333 7.7436C3.08333 7.03319 3.77092 6.45839 4.61729 6.45839L16.966 6.45839C17.3729 6.45839 17.763 6.5938 18.0507 6.83482C18.3384 7.07584 18.5 7.40274 18.5 7.7436C18.5 8.08446 18.3384 8.41136 18.0507 8.65238C17.763 8.8934 17.3729 9.02881 16.966 9.02881L4.61729 9.02881C3.76938 9.02881 3.08333 8.45402 3.08333 7.7436Z" fill="currentColor"/>
<path d="M3.08316 15.5C3.08316 14.7895 3.77075 14.2147 4.61712 14.2147L32.3825 14.2147C32.7894 14.2147 33.1795 14.3501 33.4672 14.5912C33.7549 14.8322 33.9165 15.1591 33.9165 15.4999C33.9165 15.8408 33.7549 16.1677 33.4672 16.4087C33.1795 16.6498 32.7894 16.7852 32.3825 16.7852L4.61712 16.7852C3.76921 16.7852 3.08316 16.2091 3.08316 15.5Z" fill="currentColor"/>
<path d="M4.61713 21.9711C4.2103 21.9711 3.82013 22.1065 3.53246 22.3475C3.24478 22.5885 3.08317 22.9154 3.08317 23.2563C3.08317 23.5972 3.24478 23.9241 3.53246 24.1651C3.82013 24.4061 4.2103 24.5415 4.61713 24.5415L23.1325 24.5415C23.334 24.5415 23.5335 24.5083 23.7196 24.4437C23.9057 24.3791 24.0748 24.2844 24.2172 24.1651C24.3597 24.0457 24.4726 23.9041 24.5497 23.7481C24.6268 23.5922 24.6665 23.4251 24.6665 23.2563C24.6665 23.0875 24.6268 22.9204 24.5497 22.7645C24.4726 22.6085 24.3597 22.4669 24.2172 22.3475C24.0748 22.2282 23.9057 22.1335 23.7196 22.0689C23.5335 22.0043 23.334 21.9711 23.1325 21.9711L4.61713 21.9711Z" fill="currentColor"/>
</svg>
