<svg width="21" height="20" viewBox="0 0 21 20" fill="none" xmlns="http://www.w3.org/2000/svg">
  <path d="M13.5319 14.2139L15.2541 12.491C15.4861 12.2618 15.7796 12.1049 16.0989 12.0394C16.4183 11.9739 16.7498 12.0025 17.0532 12.1218L19.1521 12.9602C19.4588 13.0847 19.7217 13.2972 19.9077 13.5709C20.0938 13.8447 20.1947 14.1674 20.1978 14.4985V18.3442C20.196 18.5694 20.1487 18.7919 20.0586 18.9983C19.9686 19.2047 19.8378 19.3908 19.674 19.5453C19.5103 19.6998 19.3169 19.8195 19.1057 19.8973C18.8944 19.9751 18.6696 20.0093 18.4448 19.9979C3.73695 19.0826 0.769244 6.62239 0.207993 1.85368C0.181939 1.6195 0.205744 1.38246 0.27784 1.15814C0.349937 0.933831 0.468692 0.727331 0.626292 0.55223C0.783892 0.377128 0.976766 0.237394 1.19223 0.142219C1.40768 0.0470438 1.64085 -0.00141458 1.87637 3.14343e-05H5.58985C5.92123 0.0010127 6.24473 0.101149 6.51876 0.287561C6.79278 0.473973 7.00479 0.738135 7.12753 1.04607L7.96556 3.14584C8.08877 3.44817 8.1202 3.78011 8.05593 4.10021C7.99167 4.4203 7.83455 4.71436 7.6042 4.94565L5.88201 6.66854C5.88201 6.66854 6.87381 13.3832 13.5319 14.2139Z" fill="currentColor"/>
</svg>
