<svg width="160" height="160" viewBox="0 4 58 60" fill="none" xmlns="http://www.w3.org/2000/svg">
<path d="M18.5768 11.7705C18.5768 11.7705 10.9416 11.8259 10.2399 11.9083C8.89093 12.0627 5.89481 12.7235 4.66146 15.1959C2.98161 18.5645 6.1442 23.3368 6.1442 23.3368L10.1204 29.6939" stroke="#BFECFF" stroke-width="1.5" stroke-linecap="round"/>
<path d="M14.1693 48.1258C15.1597 47.5068 15.4607 46.2021 14.8417 45.2117C14.2227 44.2213 12.9181 43.9203 11.9277 44.5393L10.7319 45.2866C9.74153 45.9056 9.44045 47.2103 10.0595 48.2007C10.6785 49.1911 11.9831 49.4921 12.9735 48.8731L14.1693 48.1258Z" fill="white"/>
<path d="M23.0355 31.5013C24.0259 30.8823 24.327 29.5776 23.708 28.5872C23.089 27.5968 21.7843 27.2957 20.7939 27.9147L9.23594 35.1385C8.24554 35.7575 7.94446 37.0621 8.56346 38.0525C9.18246 39.0429 10.4871 39.344 11.4775 38.725L23.0355 31.5013Z" fill="white"/>
<path d="M27.1846 39.9925C28.175 39.3735 28.4761 38.0688 27.8571 37.0784C27.2381 36.088 25.9335 35.787 24.9431 36.406L18.3387 40.5337C17.3483 41.1527 17.0472 42.4573 17.6662 43.4477C18.2852 44.4381 19.5899 44.7392 20.5803 44.1202L27.1846 39.9925Z" fill="white"/>
<path d="M51.5316 29.2126C52.3019 28.7312 52.5361 27.7164 52.0546 26.9461C51.5732 26.1757 50.5584 25.9416 49.7881 26.423C49.0177 26.9045 48.7835 27.9193 49.265 28.6896C49.7465 29.4599 50.7612 29.6941 51.5316 29.2126Z" fill="white"/>
<path fill-rule="evenodd" clip-rule="evenodd" d="M41.9665 35.3739C40.7937 37.7473 39.4498 40.4728 38.2446 42.9172C36.5556 46.3427 35.1387 49.2163 34.8458 49.7962C33.7268 52.0202 32.6377 52.7705 31.3235 52.6408C30.3056 52.549 28.9625 51.2691 28.8734 48.7205C28.7842 46.172 28.4781 39.1917 23.115 42.5427C23.0229 42.3954 22.9779 42.1675 22.9293 41.921C22.872 41.6307 22.8096 41.3146 22.6593 41.0741C21.4083 39.0725 16.2613 30.7534 16.6347 30.52C17.0082 30.2866 18.7333 28.6863 17.6506 26.8472C16.7186 25.2642 15.1936 24.359 13.544 23.38C13.2772 23.2216 13.0072 23.0614 12.7359 22.896C10.232 21.2896 9.65153 20.0467 10.2372 18.3828C10.9802 16.815 13.4292 16.8195 14.432 16.8522C15.4141 16.8849 22.9112 16.9237 30.4216 16.9357L25.5287 30.3564C25.2728 31.1441 25.3 31.9963 25.6054 32.7661C26.1533 33.4388 26.9381 33.8762 27.7986 33.9882L41.9637 35.3712C41.9646 35.3721 41.9656 35.373 41.9665 35.3739ZM36.0915 16.939C35.8745 16.9822 35.6641 17.0595 35.4684 17.1693C35.0453 17.4067 34.7165 17.7819 34.5366 18.2324C32.8143 22.162 32.333 23.4135 31.648 25.1942C31.4937 25.5956 31.329 26.0238 31.1374 26.5156C31.1104 26.5945 31.0769 26.688 31.0394 26.7928C30.7449 27.6156 30.2012 29.1343 30.5781 29.7372C30.9018 30.2553 31.6286 30.3293 33.0108 30.47C33.2102 30.4903 33.4231 30.512 33.6505 30.5366C37.4292 30.9412 42.7685 31.4034 42.7685 31.4034C43.2432 31.3579 43.694 31.1739 44.065 30.8742C44.1519 30.804 44.2335 30.7282 44.3095 30.6474C44.4487 30.3683 44.5711 30.1239 44.6741 29.9192L48.2555 22.7904C48.2675 22.7666 48.2799 22.7418 48.2929 22.7161C49.0235 21.266 51.2616 16.8233 44.5762 16.9035C42.6626 16.9265 39.5769 16.937 36.0915 16.939Z" fill="white"/>
<path d="M54.3587 22.0873C54.3587 22.0873 56.821 18.2299 54.8562 15.0192C52.8915 11.8085 47.2925 11.7602 47.2925 11.7602L26.4745 11.8719" stroke="#FE60B7" stroke-width="1.5" stroke-linecap="round"/>
<path d="M21.7822 48.6759C21.7822 48.6759 25.8898 55.2887 26.0928 55.5737C26.6558 56.3685 29.0255 59.3337 32.1998 59.0302C35.9468 58.6713 38.3202 53.4614 38.3202 53.4614L48.1784 33.7244" stroke="#A072FD" stroke-width="1.5" stroke-linecap="round"/>
</svg>
